<svg xmlns="http://www.w3.org/2000/svg" height="16" width="16" viewBox="0 0 24 24" fill="none" stroke="#ffffff" stroke-width="2" stroke-linecap="round" stroke-linejoin="round">
  <path d="M12 8a4 4 0 0 1 4 4 4 4 0 0 1-4 4 4 4 0 0 1-4-4 4 4 0 0 1 4-4z"/>
  <path d="M19.4 15.4l1.2-1.2a1 1 0 0 0 0-1.4l-2.8-2.8a1 1 0 0 0-1.4 0l-1.2 1.2a7.93 7.93 0 0 0-3.6-1v-2a7.93 7.93 0 0 0 3.6-1l1.2 1.2a1 1 0 0 0 1.4 0l2.8-2.8a1 1 0 0 0 0-1.4l-1.2-1.2A7.93 7.93 0 0 0 12 2v2a7.93 7.93 0 0 0-3.6 1L7.2 3.4a1 1 0 0 0-1.4 0l-2.8 2.8a1 1 0 0 0 0 1.4l1.2 1.2a7.93 7.93 0 0 0-1 3.6v2a7.93 7.93 0 0 0 1 3.6l-1.2 1.2a1 1 0 0 0 0 1.4l2.8 2.8a1 1 0 0 0 1.4 0l1.2-1.2a7.93 7.93 0 0 0 3.6 1v2a7.93 7.93 0 0 0-3.6-1l-1.2 1.2a1 1 0 0 0 0 1.4l2.8 2.8a1 1 0 0 0 1.4 0l1.2-1.2a7.93 7.93 0 0 0 1-3.6v-2a7.93 7.93 0 0 0-1-3.6z"/>
</svg>
