<svg xmlns="http://www.w3.org/2000/svg" height="16" width="16" viewBox="0 0 512 512"><!--!Font Awesome Free 6.5.1 by @fontawesome - https://fontawesome.com License - https://fontawesome.com/license/free Copyright 2023 Fonticons, Inc.--><path fill="#ffffff" d="M487.4 315.7l-43.2-25c4.2-23.5 4.3-47.6 0-71.2l43.1-25.1c10.9-6.3 15.8-19.4 11.9-31.4c-11-33.1-28.1-63.5-49.9-90.1c-6.9-8.6-19.1-10.5-28.3-4.7l-43.1 25c-18.6-15-38.8-27.2-60.4-36.1V44c0-11.9-8.4-22.3-20.1-24.5c-37.3-7.4-76.1-7.5-113.5 0c-11.7 2.3-20.1 12.6-20.1 24.5v50.2c-21.6 8.9-41.8 21.1-60.4 36.1l-43.1-25c-9.2-5.8-21.4-3.9-28.3 4.7c-21.8 26.6-38.9 57-49.9 90.1c-3.9 12 1 25.1 11.9 31.4l43.1 25.1c-4.3 23.6-4.3 47.8 0 71.2l-43.1 25.1c-10.9 6.3-15.8 19.4-11.9 31.4c11 33.1 28.1 63.5 49.9 90.1c6.9 8.6 19.1 10.5 28.3 4.7l43.1-25c18.6 15 38.8 27.2 60.4 36.1V468c0 11.9 8.4 22.3 20.1 24.5c37.3 7.4 76.1 7.5 113.5 0c11.7-2.3 20.1-12.6 20.1-24.5v-50.2c21.6-8.9 41.8-21.1 60.4-36.1l43.1 25c9.2 5.8 21.4 3.9 28.3-4.7c21.8-26.6 38.9-57 49.9-90.1c3.9-12-1-25.1-11.9-31.4zM256 336c-44.2 0-80-35.8-80-80s35.8-80 80-80s80 35.8 80 80s-35.8 80-80 80z"/></svg>
